<svg width="98" height="98" viewBox="0 0 98 98" fill="none" xmlns="http://www.w3.org/2000/svg">
<path d="M49 63.5109C35.1843 63.5109 22.7345 69.3281 13.9413 78.6366C22.7345 87.945 35.1843 93.763 49 93.763C62.8157 93.763 75.2656 87.9443 84.0588 78.6366C75.2656 69.3281 62.8157 63.5109 49 63.5109Z" fill="#45528E"/>
<path d="M78.0554 84.0013C80.2014 82.3822 82.2094 80.5878 84.0586 78.6365C75.2654 69.3281 62.8156 63.5109 48.9999 63.5109C47.9625 63.5109 46.9358 63.5537 45.9144 63.6181C59.4392 65.2917 71.0805 73.0138 78.0554 84.0013Z" fill="#252C4F"/>
<path d="M19.9445 84.0013C17.7985 82.3822 15.7905 80.5878 13.9413 78.6365C22.7345 69.3281 35.1843 63.5109 49 63.5109C50.0374 63.5109 51.0641 63.5537 52.0855 63.6181C38.5607 65.2917 26.9194 73.0138 19.9445 84.0013Z" fill="#687CD8"/>
<path d="M31.3906 35.5756C31.3906 36.3878 31.068 37.1667 30.4936 37.7411C29.9193 38.3154 29.1404 38.6381 28.3281 38.6381C27.5159 38.6381 26.7369 38.3154 26.1626 37.7411C25.5883 37.1667 25.2656 36.3878 25.2656 35.5756V30.2162C25.2656 29.404 25.5883 28.625 26.1626 28.0507C26.7369 27.4763 27.5159 27.1537 28.3281 27.1537C29.1404 27.1537 29.9193 27.4763 30.4936 28.0507C31.068 28.625 31.3906 29.404 31.3906 30.2162V35.5756Z" fill="#F4CEAE"/>
<path d="M72.7344 35.5756C72.7344 36.3878 72.4117 37.1667 71.8374 37.7411C71.2631 38.3154 70.4841 38.6381 69.6719 38.6381C68.8596 38.6381 68.0807 38.3154 67.5064 37.7411C66.932 37.1667 66.6094 36.3878 66.6094 35.5756V30.2162C66.6094 29.404 66.932 28.625 67.5064 28.0507C68.0807 27.4763 68.8596 27.1537 69.6719 27.1537C70.4841 27.1537 71.2631 27.4763 71.8374 28.0507C72.4117 28.625 72.7344 29.404 72.7344 30.2162V35.5756Z" fill="#EEB490"/>
<path d="M31.3906 35.5756C31.3906 36.3878 31.068 37.1667 30.4937 37.7411C29.9193 38.3154 29.1404 38.6381 28.3281 38.6381C27.5159 38.6381 26.737 38.3154 26.1626 37.7411C25.5883 37.1667 25.2656 36.3878 25.2656 35.5756V30.2162C25.2656 29.404 25.5883 28.625 26.1626 28.0507C26.737 27.4763 27.5159 27.1537 28.3281 27.1537C29.1404 27.1537 29.9193 27.4763 30.4937 28.0507C31.068 28.625 31.3906 29.404 31.3906 30.2162V35.5756ZM72.7344 35.5756C72.7344 36.3878 72.4117 37.1667 71.8374 37.7411C71.2631 38.3154 70.4841 38.6381 69.6719 38.6381C68.8597 38.6381 68.0807 38.3154 67.5064 37.7411C66.932 37.1667 66.6094 36.3878 66.6094 35.5756V30.2162C66.6094 29.404 66.932 28.625 67.5064 28.0507C68.0807 27.4763 68.8597 27.1537 69.6719 27.1537C70.4841 27.1537 71.2631 27.4763 71.8374 28.0507C72.4117 28.625 72.7344 29.404 72.7344 30.2162V35.5756ZM49 62.7453C35.1843 62.7453 22.7345 68.5625 13.9413 77.871C22.7345 87.1794 35.1843 92.9974 49 92.9974C62.8157 92.9974 75.2656 87.1787 84.0588 77.871C75.2656 68.5625 62.8157 62.7453 49 62.7453Z" stroke="#234957" stroke-width="0.382813" stroke-miterlimit="10"/>
<path d="M56.6685 54.7598L56.6563 63.0745C56.6563 67.3023 53.2285 70.7308 49 70.7308C44.7715 70.7308 41.3438 67.3023 41.3438 63.0745L41.356 54.7598" fill="#F4CEAE"/>
<path d="M56.6685 54.7598L56.6563 63.0745C56.6563 67.3023 53.2285 70.7308 49 70.7308C44.7715 70.7308 41.3438 67.3023 41.3438 63.0745L41.356 54.7598" fill="#F4CEAE"/>
<path d="M52.0732 54.3594L52.0625 62.1075C52.0625 65.9647 49.2082 69.2462 45.4988 69.7775C46.5492 70.3188 47.7375 70.6802 49 70.6802C53.2285 70.6802 56.6562 67.0772 56.6562 62.8486L56.6685 54.3594H52.0732Z" fill="#EEB490"/>
<path d="M41.3438 9.18752H35.9844C33.0421 9.18752 30.6556 6.994 30.6273 4.05859C27.6061 4.43528 25.2656 7.18617 25.2656 10.3099V18.7318C25.2656 22.1143 28.0081 24.5 31.3906 24.5H68.9062C70.1749 24.5 71.2031 23.8079 71.2031 22.5438V12.5716C71.2031 10.8864 69.8327 9.18752 68.1406 9.18752H41.3438Z" fill="#608287"/>
<path d="M37.5156 18.7318V10.3099C37.5156 10.0496 37.5378 9.95311 37.5692 9.18749H35.9844C35.2111 9.18749 34.4784 9.19821 33.8146 8.90344C33.7334 9.3008 33.6875 9.8888 33.6875 10.3099V18.7318C33.6875 22.1143 36.43 24.5 39.8125 24.5H43.6406C40.2581 24.5 37.5156 22.1143 37.5156 18.7318Z" fill="#90AAAF"/>
<path d="M28.3282 9.18752H35.9844C33.0421 9.18752 30.6557 6.994 30.6273 4.05859C28.1391 4.36867 26.1163 6.07984 25.4785 8.45022C26.3046 8.97084 27.2793 9.18752 28.3282 9.18752ZM68.1407 9.18752H60.4844C62.1765 9.18752 63.5469 10.8872 63.5469 12.5716V22.5438C63.5469 23.8071 62.5187 24.5 61.25 24.5H68.9063C70.1749 24.5 71.2032 23.8079 71.2032 22.5438V12.5716C71.2032 10.8864 69.8327 9.18752 68.1407 9.18752Z" fill="#4E676D"/>
<path d="M29.0938 18.7318V10.3099C29.0938 8.59947 29.7981 7.0575 30.929 5.94734C30.7358 5.39748 30.6339 4.81971 30.6273 4.23694C27.6061 4.61363 25.2656 7.18613 25.2656 10.3099V18.7318C25.2656 22.1143 28.0081 24.5 31.3906 24.5H35.2188C31.8362 24.5 29.0938 22.1143 29.0938 18.7318Z" fill="#90AAAF"/>
<path d="M68.9062 24.8568V40.6976C68.9062 51.2686 60.3366 59.8382 49.7656 59.8382H48.2344C37.6634 59.8382 29.0938 51.2686 29.0938 40.6976V24.8568" fill="#F4CEAE"/>
<path d="M68.9062 24.8568V40.6976C68.9062 51.2686 60.3366 59.8382 49.7656 59.8382H48.2344C37.6634 59.8382 29.0938 51.2686 29.0938 40.6976V24.8568" stroke="black" stroke-width="0.382813" stroke-miterlimit="10"/>
<path d="M68.9062 24.8568V40.6976C68.9062 51.2686 60.3366 59.8382 49.7656 59.8382H48.2344C37.6634 59.8382 29.0938 51.2686 29.0938 40.6976V24.8568" fill="#F4CEAE"/>
<path d="M63.5469 24.5V40.6976C63.5469 50.6224 55.9925 58.7227 46.3203 59.6828C46.9497 59.7455 47.5882 59.7188 48.2344 59.7188H49.7656C60.3366 59.7188 68.9062 51.2685 68.9062 40.6976V24.5H63.5469Z" fill="#EEB490"/>
<path opacity="0.16" d="M34.4531 24.8568V40.6976C34.4531 50.6224 42.199 58.9003 51.8711 59.8612C51.2418 59.924 50.7946 60.0756 50.1484 60.0756H48.6172C38.0462 60.0756 29.0938 51.2686 29.0938 40.6976V24.8568H34.4531Z" fill="white"/>
<path d="M29.0938 24.5H68.9062V29.0938H29.0938V24.5Z" fill="#EEB490"/>
<path d="M56.68 48.0315C55.7471 49.1652 54.5744 50.078 53.2464 50.7042C51.9185 51.3303 50.4682 51.6544 49 51.6529C47.538 51.6544 46.0938 51.3331 44.7703 50.712C43.4469 50.0909 42.2768 49.1853 41.3438 48.0598" stroke="#234957" stroke-width="0.382813" stroke-miterlimit="10" stroke-linecap="round" stroke-linejoin="round"/>
<path d="M40.1984 35.5701C41.2555 35.5701 42.1124 34.7132 42.1124 33.6561C42.1124 32.599 41.2555 31.742 40.1984 31.742C39.1413 31.742 38.2843 32.599 38.2843 33.6561C38.2843 34.7132 39.1413 35.5701 40.1984 35.5701Z" fill="#234957"/>
<path d="M57.8016 35.5801C58.8587 35.5801 59.7157 34.7231 59.7157 33.666C59.7157 32.6089 58.8587 31.752 57.8016 31.752C56.7445 31.752 55.8876 32.6089 55.8876 33.666C55.8876 34.7231 56.7445 35.5801 57.8016 35.5801Z" fill="#234957"/>
<path d="M48.2344 42.1094H49H48.2344Z" fill="black"/>
<path d="M48.2344 42.1094H49" stroke="#234957" stroke-width="0.382813" stroke-miterlimit="10" stroke-linecap="round" stroke-linejoin="round"/>
<path d="M68.9062 24.8568V40.6975C68.9062 51.2685 60.3366 59.8382 49.7656 59.8382H48.2344C37.6634 59.8382 29.0938 51.2685 29.0938 40.6975V24.8568M48.2344 9.51976H35.9844C33.0421 9.51976 30.6556 7.32701 30.6273 4.3916C27.6061 4.76752 25.2656 7.51841 25.2656 10.6422V19.064C25.2656 22.4466 28.0081 24.8323 31.3906 24.8323H68.9139C69.2145 24.8323 69.5122 24.773 69.79 24.658C70.0677 24.543 70.3201 24.3743 70.5326 24.1618C70.7452 23.9492 70.9138 23.6968 71.0289 23.4191C71.1439 23.1413 71.2031 22.8437 71.2031 22.543V14.1135C71.2031 12.8952 70.7191 11.7267 69.8576 10.8652C68.9961 10.0037 67.8277 9.51976 66.6094 9.51976H52.0625H48.2344Z" stroke="#234957" stroke-width="0.382813" stroke-miterlimit="10" stroke-linecap="round" stroke-linejoin="round"/>
<path d="M56.6685 58.588L56.6563 63.0745C56.6563 67.3023 53.2285 70.7308 49 70.7308C44.7715 70.7308 41.3438 67.3023 41.3438 63.0745L41.356 58.588" stroke="#234957" stroke-width="0.382813" stroke-miterlimit="10"/>
<path d="M49.1638 78.0217C49.919 78.0217 50.5312 77.4095 50.5312 76.6543C50.5312 75.8991 49.919 75.2869 49.1638 75.2869C48.4086 75.2869 47.7964 75.8991 47.7964 76.6543C47.7964 77.4095 48.4086 78.0217 49.1638 78.0217Z" fill="#252C4F"/>
<path d="M49.1638 83.3811C49.919 83.3811 50.5312 82.7689 50.5312 82.0137C50.5312 81.2585 49.919 80.6463 49.1638 80.6463C48.4086 80.6463 47.7964 81.2585 47.7964 82.0137C47.7964 82.7689 48.4086 83.3811 49.1638 83.3811Z" fill="#252C4F"/>
<path d="M49.1638 88.7405C49.919 88.7405 50.5312 88.1283 50.5312 87.3731C50.5312 86.6179 49.919 86.0057 49.1638 86.0057C48.4086 86.0057 47.7964 86.6179 47.7964 87.3731C47.7964 88.1283 48.4086 88.7405 49.1638 88.7405Z" fill="#252C4F"/>
</svg>
