<svg width="40" height="40" viewBox="0 0 40 40" fill="none" xmlns="http://www.w3.org/2000/svg">
<path d="M20.0002 36.6668C17.6946 36.6668 15.5279 36.2291 13.5002 35.3535C11.4724 34.4779 9.7085 33.2907 8.2085 31.7918C6.7085 30.2929 5.52128 28.5291 4.64683 26.5002C3.77239 24.4713 3.33461 22.3046 3.3335 20.0002C3.33239 17.6957 3.77016 15.5291 4.64683 13.5002C5.5235 11.4713 6.71072 9.70739 8.2085 8.2085C9.70628 6.70961 11.4702 5.52239 13.5002 4.64683C15.5302 3.77127 17.6968 3.3335 20.0002 3.3335C22.3035 3.3335 24.4702 3.77127 26.5002 4.64683C28.5302 5.52239 30.2941 6.70961 31.7918 8.2085C33.2896 9.70739 34.4774 11.4713 35.3552 13.5002C36.2329 15.5291 36.6702 17.6957 36.6668 20.0002C36.6635 22.3046 36.2257 24.4713 35.3535 26.5002C34.4813 28.5291 33.2941 30.2929 31.7918 31.7918C30.2896 33.2907 28.5257 34.4785 26.5002 35.3552C24.4746 36.2318 22.3079 36.6691 20.0002 36.6668ZM15.1668 32.4168L17.1668 27.8335C16.0002 27.4168 14.9935 26.7713 14.1468 25.8968C13.3002 25.0224 12.6402 24.0013 12.1668 22.8335L7.5835 24.7502C8.22239 26.5279 9.2085 28.0835 10.5418 29.4168C11.8752 30.7502 13.4168 31.7502 15.1668 32.4168ZM12.1668 17.1668C12.6391 16.0002 13.2991 14.9796 14.1468 14.1052C14.9946 13.2307 16.0013 12.5846 17.1668 12.1668L15.2502 7.5835C13.4724 8.25016 11.9168 9.25016 10.5835 10.5835C9.25016 11.9168 8.25016 13.4724 7.5835 15.2502L12.1668 17.1668ZM20.0002 25.0002C21.3891 25.0002 22.5696 24.5141 23.5418 23.5418C24.5141 22.5696 25.0002 21.3891 25.0002 20.0002C25.0002 18.6113 24.5141 17.4307 23.5418 16.4585C22.5696 15.4863 21.3891 15.0002 20.0002 15.0002C18.6113 15.0002 17.4307 15.4863 16.4585 16.4585C15.4863 17.4307 15.0002 18.6113 15.0002 20.0002C15.0002 21.3891 15.4863 22.5696 16.4585 23.5418C17.4307 24.5141 18.6113 25.0002 20.0002 25.0002ZM24.8335 32.4168C26.5835 31.7502 28.1185 30.7574 29.4385 29.4385C30.7585 28.1196 31.7513 26.5846 32.4168 24.8335L27.8335 22.8335C27.4168 24.0002 26.7779 25.0074 25.9168 25.8552C25.0557 26.7029 24.0557 27.3624 22.9168 27.8335L24.8335 32.4168ZM27.8335 17.0835L32.4168 15.1668C31.7502 13.4168 30.7574 11.8824 29.4385 10.5635C28.1196 9.24461 26.5846 8.25127 24.8335 7.5835L22.9168 12.2502C24.0557 12.6668 25.0418 13.2991 25.8752 14.1468C26.7085 14.9946 27.3613 15.9735 27.8335 17.0835Z" fill="white"/>
</svg>
