<svg width="43" height="30" viewBox="0 0 43 30" fill="none" xmlns="http://www.w3.org/2000/svg">
<path d="M28.2353 15C28.2353 13.8299 28.7001 12.7078 29.5275 11.8804C30.3548 11.053 31.477 10.5882 32.6471 10.5882C33.8171 10.5882 34.9393 11.053 35.7666 11.8804C36.594 12.7078 37.0588 13.8299 37.0588 15C37.0588 16.1701 36.594 17.2922 35.7666 18.1196C34.9393 18.947 33.8171 19.4118 32.6471 19.4118C31.477 19.4118 30.3548 18.947 29.5275 18.1196C28.7001 17.2922 28.2353 16.1701 28.2353 15ZM22.9412 0V30H42.3529V0H22.9412ZM38.8235 22.9412C36.8824 22.9412 35.2941 24.5294 35.2941 26.4706H30C30 25.5345 29.6281 24.6368 28.9663 23.9749C28.3044 23.313 27.4066 22.9412 26.4706 22.9412V7.05882C28.4294 7.05882 30 5.48824 30 3.52941H35.2941C35.2941 4.46547 35.666 5.36319 36.3279 6.02508C36.9897 6.68698 37.8875 7.05882 38.8235 7.05882V22.9412ZM12.3529 5.29412C14.2941 5.29412 15.8824 6.88235 15.8824 8.82353C15.8824 10.7647 14.2941 12.3529 12.3529 12.3529C10.4118 12.3529 8.82353 10.7647 8.82353 8.82353C8.82353 6.88235 10.4118 5.29412 12.3529 5.29412ZM12.3529 1.76471C8.45294 1.76471 5.29412 4.92353 5.29412 8.82353C5.29412 12.7235 8.45294 15.8824 12.3529 15.8824C16.2529 15.8824 19.4118 12.7235 19.4118 8.82353C19.4118 4.92353 16.2529 1.76471 12.3529 1.76471ZM12.3529 19.4118C5.52353 19.4118 0 22.5706 0 26.4706V30H19.4118V26.4706H3.52941C3.52941 25.4471 6.61765 22.9412 12.3529 22.9412C15.5824 22.9412 17.9471 23.7353 19.4118 24.6176V20.6824C17.4176 19.8882 15 19.4118 12.3529 19.4118Z" fill="white"/>
</svg>
