<svg width="42" height="42" viewBox="0 0 42 42" fill="none" xmlns="http://www.w3.org/2000/svg">
<path d="M5.25 12.25C5.25 14.1065 5.9875 15.887 7.30025 17.1997C8.61301 18.5125 10.3935 19.25 12.25 19.25C14.1065 19.25 15.887 18.5125 17.1997 17.1997C18.5125 15.887 19.25 14.1065 19.25 12.25C19.25 10.3935 18.5125 8.61301 17.1997 7.30025C15.887 5.9875 14.1065 5.25 12.25 5.25C10.3935 5.25 8.61301 5.9875 7.30025 7.30025C5.9875 8.61301 5.25 10.3935 5.25 12.25Z" stroke="white" stroke-width="3" stroke-linecap="round" stroke-linejoin="round"/>
<path d="M12.25 5.25V12.25H19.25M15.75 29.75V36.75M29.75 24.5V36.75M22.75 22.75V36.75M36.75 21V36.75" stroke="white" stroke-width="3" stroke-linecap="round" stroke-linejoin="round"/>
</svg>
