<svg width="42" height="42" viewBox="0 0 42 42" fill="none" xmlns="http://www.w3.org/2000/svg">
<path d="M21 36C17.5 36 14.4028 34.9378 11.7083 32.8133C9.01389 30.6889 7.26389 27.9733 6.45833 24.6667C6.34722 24.25 6.43056 23.8683 6.70833 23.5217C6.98611 23.175 7.36111 22.9733 7.83333 22.9167C8.27778 22.8611 8.68056 22.9444 9.04167 23.1667C9.40278 23.3889 9.65278 23.7222 9.79167 24.1667C10.4583 26.6667 11.8333 28.7083 13.9167 30.2917C16 31.875 18.3611 32.6667 21 32.6667C24.25 32.6667 27.0072 31.535 29.2717 29.2717C31.5361 27.0083 32.6678 24.2511 32.6667 21C32.6656 17.7489 31.5339 14.9922 29.2717 12.73C27.0094 10.4678 24.2522 9.33556 21 9.33333C19.0833 9.33333 17.2917 9.77778 15.625 10.6667C13.9583 11.5556 12.5556 12.7778 11.4167 14.3333H14.3333C14.8056 14.3333 15.2017 14.4933 15.5217 14.8133C15.8417 15.1333 16.0011 15.5289 16 16C15.9989 16.4711 15.8389 16.8672 15.52 17.1883C15.2011 17.5094 14.8056 17.6689 14.3333 17.6667H7.66667C7.19444 17.6667 6.79889 17.5067 6.48 17.1867C6.16111 16.8667 6.00111 16.4711 6 16V9.33333C6 8.86111 6.16 8.46556 6.48 8.14667C6.8 7.82778 7.19556 7.66778 7.66667 7.66667C8.13778 7.66556 8.53389 7.82556 8.855 8.14667C9.17611 8.46778 9.33556 8.86333 9.33333 9.33333V11.5833C10.75 9.80556 12.4794 8.43056 14.5217 7.45833C16.5639 6.48611 18.7233 6 21 6C23.0833 6 25.035 6.39611 26.855 7.18833C28.675 7.98056 30.2583 9.04944 31.605 10.395C32.9517 11.7406 34.0211 13.3239 34.8133 15.145C35.6056 16.9661 36.0011 18.9178 36 21C35.9989 23.0822 35.6033 25.0339 34.8133 26.855C34.0233 28.6761 32.9539 30.2594 31.605 31.605C30.2561 32.9506 28.6728 34.02 26.855 34.8133C25.0372 35.6067 23.0856 36.0022 21 36ZM22.6667 20.3333L26.8333 24.5C27.1389 24.8056 27.2917 25.1944 27.2917 25.6667C27.2917 26.1389 27.1389 26.5278 26.8333 26.8333C26.5278 27.1389 26.1389 27.2917 25.6667 27.2917C25.1944 27.2917 24.8056 27.1389 24.5 26.8333L19.8333 22.1667C19.6667 22 19.5417 21.8128 19.4583 21.605C19.375 21.3972 19.3333 21.1817 19.3333 20.9583V14.3333C19.3333 13.8611 19.4933 13.4656 19.8133 13.1467C20.1333 12.8278 20.5289 12.6678 21 12.6667C21.4711 12.6656 21.8672 12.8256 22.1883 13.1467C22.5094 13.4678 22.6689 13.8633 22.6667 14.3333V20.3333Z" fill="white"/>
</svg>
