<svg width="34" height="37" viewBox="0 0 34 37" fill="none" xmlns="http://www.w3.org/2000/svg">
<path d="M0 32.7714V13.7429C0 13.0733 0.150114 12.439 0.450342 11.84C0.750571 11.241 1.16427 10.7476 1.69143 10.36L14.3771 0.845714C15.1171 0.281905 15.9629 0 16.9143 0C17.8657 0 18.7114 0.281905 19.4514 0.845714L32.1371 10.36C32.6657 10.7476 33.0801 11.241 33.3803 11.84C33.6806 12.439 33.83 13.0733 33.8286 13.7429V32.7714C33.8286 33.9343 33.4142 34.9301 32.5854 35.7589C31.7566 36.5877 30.7614 37.0014 29.6 37H23.2571C22.6581 37 22.1563 36.797 21.7518 36.3911C21.3472 35.9851 21.1443 35.4833 21.1429 34.8857V24.3143C21.1429 23.7152 20.9399 23.2134 20.5339 22.8089C20.128 22.4044 19.6262 22.2014 19.0286 22.2H14.8C14.2009 22.2 13.6992 22.403 13.2946 22.8089C12.8901 23.2149 12.6871 23.7166 12.6857 24.3143V34.8857C12.6857 35.4848 12.4827 35.9873 12.0768 36.3932C11.6709 36.7991 11.1691 37.0014 10.5714 37H4.22857C3.06571 37 2.07059 36.5863 1.2432 35.7589C0.415809 34.9315 0.00140952 33.9357 0 32.7714Z" fill="white"/>
</svg>
