<svg width="38" height="38" viewBox="0 0 38 38" fill="none" xmlns="http://www.w3.org/2000/svg">
<path d="M32.3879 5.61216L36.3684 6.40779C36.5821 6.45054 36.7579 6.60729 36.8196 6.81866C36.8508 6.92134 36.8536 7.03055 36.8277 7.13468C36.8017 7.23882 36.7481 7.33397 36.6724 7.41004L33.4115 10.6733C33.0208 11.0618 32.4924 11.2803 31.9414 11.2813H29.2363L22.4437 18.0762C22.5733 18.5655 22.5972 19.0768 22.5137 19.576C22.4301 20.0752 22.2412 20.5509 21.9594 20.9714C21.6776 21.3919 21.3095 21.7475 20.8795 22.0146C20.4495 22.2816 19.9675 22.454 19.4657 22.5202C18.9639 22.5863 18.4537 22.5448 17.9692 22.3983C17.4847 22.2519 17.0369 22.0039 16.6558 21.6708C16.2746 21.3377 15.9688 20.9272 15.7588 20.4667C15.5487 20.0062 15.4392 19.5062 15.4375 19C15.4374 18.4534 15.5631 17.914 15.8048 17.4237C16.0466 16.9334 16.398 16.5053 16.8317 16.1726C17.2655 15.8399 17.77 15.6115 18.3062 15.505C18.8424 15.3985 19.3959 15.4169 19.9239 15.5587L26.7188 8.76141V6.06104C26.7188 5.51004 26.9372 4.98041 27.3267 4.59091L30.59 1.32766C30.6661 1.25197 30.7612 1.19831 30.8654 1.17238C30.9695 1.14645 31.0787 1.14923 31.1814 1.18041C31.3927 1.24216 31.5495 1.41791 31.5923 1.63166L32.3879 5.61216Z" fill="white"/>
<path d="M4.75014 18.9999C4.75258 21.0375 5.192 23.051 6.03874 24.9044C6.88549 26.7578 8.11987 28.408 9.65862 29.7438C11.1974 31.0796 13.0047 32.0698 14.9587 32.6477C16.9127 33.2256 18.9679 33.3777 20.9857 33.0938C23.0035 32.8099 24.9369 32.0965 26.6555 31.0019C28.3742 29.9072 29.8381 28.4567 30.9485 26.7481C32.0588 25.0396 32.7899 23.1128 33.0923 21.0977C33.3947 19.0826 33.2615 17.0261 32.7015 15.0669C32.6229 14.838 32.5917 14.5955 32.6098 14.3542C32.6279 14.1128 32.6949 13.8777 32.8068 13.6631C32.9186 13.4484 33.073 13.2588 33.2605 13.1058C33.448 12.9527 33.6647 12.8395 33.8973 12.7728C34.13 12.7062 34.3738 12.6876 34.6139 12.7182C34.8539 12.7488 35.0853 12.8279 35.2938 12.9508C35.5023 13.0736 35.6837 13.2376 35.8268 13.4328C35.9699 13.628 36.0718 13.8502 36.1263 14.086C37.2105 17.8801 37.0046 21.9269 35.5407 25.5913C34.0769 29.2558 31.438 32.3306 28.038 34.3334C24.638 36.3362 20.6694 37.1537 16.7547 36.6575C12.84 36.1614 9.20075 34.3798 6.40789 31.5921C3.61808 28.8 1.83454 25.1604 1.33728 21.2448C0.840021 17.3292 1.65721 13.3593 3.66055 9.95844C5.66388 6.55758 8.73992 3.91831 12.4057 2.45502C16.0715 0.991735 20.1194 0.787283 23.914 1.87377C24.3658 2.00584 24.747 2.3114 24.9742 2.72367C25.2015 3.13593 25.2562 3.62137 25.1266 4.07391C24.997 4.52645 24.6936 4.90928 24.2825 5.13875C23.8715 5.36822 23.3864 5.42566 22.9331 5.29852C20.8113 4.68921 18.5768 4.58124 16.4061 4.98312C14.2353 5.385 12.1876 6.28574 10.4245 7.61431C8.66135 8.94287 7.23102 10.6629 6.24629 12.6388C5.26157 14.6146 4.74939 16.7922 4.75014 18.9999Z" fill="white"/>
<path d="M11.8752 18.9999C11.8753 20.298 12.2299 21.5715 12.9006 22.6829C13.5713 23.7944 14.5328 24.7016 15.6813 25.3068C16.8297 25.9119 18.1216 26.192 19.4176 26.1169C20.7136 26.0417 21.9644 25.6142 23.0353 24.8804C24.1059 24.1447 24.9551 23.1303 25.4909 21.9469C26.0267 20.7635 26.2288 19.4562 26.0753 18.1662C26.0338 17.8532 26.0764 17.5348 26.1989 17.2437C26.3214 16.9527 26.5192 16.6995 26.772 16.5104C27.0248 16.3212 27.3235 16.2028 27.6372 16.1674C27.951 16.132 28.2686 16.1809 28.5572 16.309C28.8457 16.4355 29.0955 16.6362 29.2812 16.8907C29.4669 17.1452 29.5817 17.4444 29.614 17.7577C29.8721 19.962 29.4376 22.1919 28.3708 24.138C27.3039 26.084 25.6578 27.6497 23.6607 28.6177C21.6637 29.5858 19.4148 29.9081 17.2263 29.5399C15.0377 29.1718 13.018 28.1315 11.4476 26.5634C9.8771 24.9954 8.83374 22.9773 8.46229 20.7893C8.09085 18.6013 8.40974 16.3519 9.37472 14.3534C10.3397 12.3549 11.9029 10.7064 13.8473 9.63659C15.7918 8.56683 18.021 8.12891 20.2257 8.38362C20.4617 8.40553 20.691 8.47433 20.9002 8.58601C21.1093 8.69769 21.294 8.84999 21.4435 9.03398C21.593 9.21798 21.7043 9.42997 21.7708 9.65752C21.8373 9.88508 21.8577 10.1236 21.8309 10.3592C21.804 10.5947 21.7304 10.8225 21.6143 11.0293C21.4982 11.236 21.3421 11.4175 21.155 11.5631C20.9679 11.7086 20.7536 11.8154 20.5247 11.8771C20.2958 11.9388 20.0568 11.9542 19.8219 11.9224C18.8236 11.8065 17.8121 11.9031 16.8537 12.2058C15.8954 12.5086 15.012 13.0107 14.2614 13.6791C13.5109 14.3475 12.9103 15.1672 12.499 16.0842C12.0878 17.0012 11.8752 17.9949 11.8752 18.9999Z" fill="white"/>
</svg>
